<svg width="145" height="150" viewBox="0 0 145 150" fill="none" xmlns="http://www.w3.org/2000/svg">
<path d="M7.00001 48.0625L3.3628 51.4934L0.126608 48.0625L3.3628 44.6317L7.00001 48.0625ZM91.5313 145L91.5313 140L91.5313 140L91.5313 145ZM48.5625 150C45.8011 150 43.5625 147.761 43.5625 145C43.5625 142.239 45.8011 140 48.5625 140L48.5625 150ZM44.9253 95.5558L3.3628 51.4934L10.6372 44.6317L52.1997 88.6942L44.9253 95.5558ZM3.3628 44.6317L44.9253 0.569167L52.1997 7.43086L10.6372 51.4934L3.3628 44.6317ZM7.00001 43.0625L91.5313 43.0625L91.5313 53.0625L7.00001 53.0625L7.00001 43.0625ZM91.5313 150L48.5625 150L48.5625 140L91.5313 140L91.5313 150ZM145 96.5312C145 126.061 121.061 150 91.5313 150L91.5313 140C115.538 140 135 120.538 135 96.5312L145 96.5312ZM91.5313 43.0625C121.061 43.0625 145 67.0013 145 96.5312L135 96.5312C135 72.5241 115.538 53.0625 91.5313 53.0625L91.5313 43.0625Z" fill="#BD8904"/>
</svg>
