<svg width="46" height="46" viewBox="0 0 46 46" fill="none" xmlns="http://www.w3.org/2000/svg">
<path fill-rule="evenodd" clip-rule="evenodd" d="M30.3711 44.7137L5.19117 31.3047C1.97785 29.5871 0 26.423 0 23C0 19.577 1.97785 16.4129 5.19117 14.6953L30.3711 1.28626C33.5959 -0.429306 37.5691 -0.428719 40.7933 1.2878C44.0174 3.00431 46.0024 6.1758 46 9.60692L46 36.3931C46.0024 39.8242 44.0174 42.9957 40.7933 44.7122C37.5691 46.4287 33.5959 46.4293 30.3711 44.7137ZM33.4969 6.27866L8.31695 19.6557C7.02132 20.3373 6.22489 21.6093 6.2331 22.984C6.21965 24.3683 7.01581 25.6521 8.31695 26.3443L33.4969 39.7213C34.1266 40.0702 34.846 40.258 35.5807 40.2654C37.9017 40.2654 39.7832 38.5317 39.7832 36.3931L39.7832 9.60692C39.7832 8.57992 39.3404 7.59498 38.5523 6.86878C37.7642 6.14258 36.6953 5.73461 35.5807 5.73461C34.846 5.74204 34.1266 5.92984 33.4969 6.27866Z" fill="#BD8904"/>
</svg>
