<svg width="54" height="54" viewBox="0 0 54 54" fill="none" xmlns="http://www.w3.org/2000/svg">
<path fill-rule="evenodd" clip-rule="evenodd" d="M10.8 0H43.2C49.1647 0 54 4.83532 54 10.8V43.2C54 49.1647 49.1647 54 43.2 54H10.8C4.83532 54 0 49.1647 0 43.2V10.8C0 4.83532 4.83532 0 10.8 0ZM47.973 47.973C49.2388 46.7071 49.95 44.9902 49.95 43.2V10.8C49.95 9.00979 49.2388 7.2929 47.973 6.02703C46.7071 4.76116 44.9902 4.05 43.2 4.05H10.8C7.07208 4.05 4.05 7.07208 4.05 10.8V43.2C4.05 44.9902 4.76116 46.7071 6.02703 47.973C7.2929 49.2388 9.00979 49.95 10.8 49.95H43.2C44.9902 49.95 46.7071 49.2388 47.973 47.973Z" fill="#BD8904"/>
<path d="M38.448 24.975H15.552C14.4336 24.975 13.527 25.8816 13.527 27C13.527 28.1184 14.4336 29.025 15.552 29.025H38.448C39.5664 29.025 40.473 28.1184 40.473 27C40.473 25.8816 39.5664 24.975 38.448 24.975Z" fill="#BD8904"/>
</svg>
