<svg width="135" height="32" viewBox="0 0 135 32" fill="none" xmlns="http://www.w3.org/2000/svg">
<g clip-path="url(#clip0_7_811)">
<g clip-path="url(#clip1_7_811)">
<path d="M0 31.7329V0H134.929V31.7329H0Z" fill="#BD8904"/>
<path d="M1.2439 30.4894V1.24353H133.684V30.4894H1.2439Z" fill="#252121"/>
<path d="M3.73206 28.002V3.7309H131.197V28.002H3.73206Z" fill="#BD8904"/>
<g clip-path="url(#clip2_7_811)">
<g clip-path="url(#clip3_7_811)">
<g clip-path="url(#clip4_7_811)">
<path d="M9.15079 24.2711H7.46936V11.4252H9.15079V12.9115H9.25698C9.39857 12.6874 9.59091 12.4456 9.83397 12.186C10.0747 11.9265 10.3956 11.7048 10.7968 11.5207C11.198 11.3391 11.6936 11.2483 12.2835 11.2483C12.9915 11.2483 13.611 11.3863 14.142 11.6623C14.6729 11.9407 15.1154 12.3123 15.4694 12.777C15.8234 13.2441 16.0889 13.7667 16.2659 14.3447C16.4429 14.9227 16.5314 15.5125 16.5314 16.1141C16.5314 16.7157 16.4429 17.3055 16.2659 17.8835C16.0889 18.4615 15.8234 18.9829 15.4694 19.4477C15.1154 19.9148 14.6729 20.2864 14.142 20.5624C13.611 20.8408 12.9915 20.98 12.2835 20.98C11.6936 20.98 11.198 20.8856 10.7968 20.6969C10.3956 20.5081 10.0747 20.284 9.83397 20.0245C9.59091 19.765 9.39857 19.5291 9.25698 19.3167H9.15079V24.2711ZM9.18618 16.1141C9.18618 16.6803 9.29002 17.2253 9.49769 17.749C9.703 18.2751 10.0157 18.7057 10.4357 19.0407C10.8534 19.3781 11.375 19.5468 12.0004 19.5468C12.6375 19.5468 13.1661 19.3781 13.5862 19.0407C14.0039 18.7057 14.3166 18.2751 14.5243 17.749C14.7296 17.2253 14.8322 16.6803 14.8322 16.1141C14.8322 15.5361 14.7296 14.9876 14.5243 14.4686C14.3166 13.9495 14.0039 13.5214 13.5862 13.184C13.1661 12.849 12.6375 12.6815 12.0004 12.6815C11.375 12.6815 10.8534 12.849 10.4357 13.184C10.0157 13.5214 9.703 13.9495 9.49769 14.4686C9.29002 14.9876 9.18618 15.5361 9.18618 16.1141ZM20.5137 20.803H18.8323V11.4252H20.5137V12.593H20.5845C20.7851 12.2391 21.0801 11.9265 21.4694 11.6552C21.8588 11.3839 22.4075 11.2483 23.1155 11.2483C23.3161 11.2483 23.4989 11.2565 23.6641 11.273C23.8293 11.2919 23.9119 11.3013 23.9119 11.3013V12.9115C23.9119 12.9115 23.8199 12.9021 23.6358 12.8832C23.4541 12.8667 23.263 12.8584 23.0624 12.8584C22.2482 12.8584 21.6193 13.0908 21.1756 13.5556C20.7343 14.0227 20.5137 14.7812 20.5137 15.831V20.803ZM29.5049 20.98C28.5019 20.98 27.6583 20.7464 26.9739 20.2793C26.2895 19.8145 25.7703 19.2106 25.4164 18.4674C25.0624 17.7243 24.8854 16.9398 24.8854 16.1141C24.8854 15.2766 25.0624 14.4886 25.4164 13.7502C25.7703 13.0141 26.2895 12.4125 26.9739 11.9454C27.6583 11.4806 28.5019 11.2483 29.5049 11.2483C30.5078 11.2483 31.3515 11.4806 32.0359 11.9454C32.7202 12.4125 33.2394 13.0141 33.5934 13.7502C33.9474 14.4886 34.1244 15.2766 34.1244 16.1141C34.1244 16.9398 33.9474 17.7243 33.5934 18.4674C33.2394 19.2106 32.7202 19.8145 32.0359 20.2793C31.3515 20.7464 30.5078 20.98 29.5049 20.98ZM29.5049 19.5114C30.142 19.5114 30.6754 19.3486 31.1049 19.023C31.5367 18.6998 31.8612 18.2787 32.0783 17.7597C32.2978 17.2406 32.4075 16.6921 32.4075 16.1141C32.4075 15.5243 32.2978 14.9723 32.0783 14.458C31.8612 13.946 31.5367 13.5272 31.1049 13.2017C30.6754 12.8785 30.142 12.7169 29.5049 12.7169C28.8795 12.7169 28.3485 12.8785 27.9119 13.2017C27.4754 13.5272 27.1473 13.946 26.9279 14.458C26.7108 14.9723 26.6022 15.5243 26.6022 16.1141C26.6022 16.6921 26.7108 17.2406 26.9279 17.7597C27.1473 18.2787 27.4754 18.6998 27.9119 19.023C28.3485 19.3486 28.8795 19.5114 29.5049 19.5114ZM40.7757 20.98C40.0088 20.98 39.3362 20.8408 38.758 20.5624C38.1798 20.2864 37.6996 19.9148 37.3173 19.4477C36.9326 18.9829 36.6436 18.4615 36.45 17.8835C36.2542 17.3055 36.1562 16.7157 36.1562 16.1141C36.1562 15.5125 36.2506 14.9251 36.4394 14.3518C36.6282 13.7809 36.9149 13.2595 37.2996 12.7876C37.6819 12.3158 38.1621 11.9407 38.7403 11.6623C39.3185 11.3863 39.997 11.2483 40.7757 11.2483C41.5309 11.2483 42.1563 11.3603 42.6518 11.5844C43.1474 11.8086 43.5462 12.0881 43.8483 12.4231C44.148 12.7605 44.3722 13.0967 44.5209 13.4317C44.6672 13.7691 44.764 14.0498 44.8111 14.2739C44.8583 14.4981 44.882 14.6101 44.882 14.6101H43.2536C43.2536 14.6101 43.2241 14.5134 43.1651 14.3199C43.1061 14.1241 42.994 13.9024 42.8288 13.6546C42.6636 13.4069 42.4159 13.1852 42.0855 12.9893C41.7551 12.7959 41.3185 12.6992 40.7757 12.6992C40.1268 12.6992 39.5816 12.8608 39.1403 13.184C38.6967 13.5096 38.3663 13.9319 38.1492 14.4509C37.9297 14.9699 37.82 15.5243 37.82 16.1141C37.82 16.7039 37.9297 17.2583 38.1492 17.7774C38.3663 18.2964 38.6967 18.7175 39.1403 19.0407C39.5816 19.3663 40.1268 19.5291 40.7757 19.5291C41.3185 19.5291 41.7551 19.4323 42.0855 19.2389C42.4159 19.0431 42.6636 18.8213 42.8288 18.5736C42.994 18.3259 43.1061 18.1041 43.1651 17.9083C43.2241 17.7148 43.2536 17.6181 43.2536 17.6181H44.882C44.882 17.6181 44.8583 17.7302 44.8111 17.9543C44.764 18.1784 44.6672 18.458 44.5209 18.793C44.3722 19.1304 44.148 19.4665 43.8483 19.8016C43.5462 20.1389 43.1474 20.4197 42.6518 20.6438C42.1563 20.8679 41.5309 20.98 40.7757 20.98ZM48.8643 20.803H47.1828V11.4252H48.8643V12.593H48.9351C49.1357 12.2391 49.4306 11.9265 49.82 11.6552C50.2094 11.3839 50.7581 11.2483 51.4661 11.2483C51.6666 11.2483 51.8495 11.2565 52.0147 11.273C52.1799 11.2919 52.2625 11.3013 52.2625 11.3013V12.9115C52.2625 12.9115 52.1717 12.9021 51.99 12.8832C51.8059 12.8667 51.6135 12.8584 51.413 12.8584C50.5988 12.8584 49.9711 13.0908 49.5298 13.5556C49.0861 14.0227 48.8643 14.7812 48.8643 15.831V20.803ZM57.4838 11.2483C58.0738 11.2483 58.5693 11.3426 58.9705 11.5314C59.3717 11.7201 59.6962 11.9407 59.944 12.1931C60.1918 12.4479 60.3806 12.6874 60.5103 12.9115H60.6165V11.4252H62.298V20.803H60.6165V19.3167H60.5103C60.3806 19.5409 60.1918 19.7827 59.944 20.0422C59.6962 20.3017 59.3717 20.5223 58.9705 20.704C58.5693 20.888 58.0738 20.98 57.4838 20.98C56.7758 20.98 56.1563 20.8408 55.6254 20.5624C55.0944 20.2864 54.6519 19.9148 54.2979 19.4477C53.9439 18.9829 53.6785 18.4615 53.5015 17.8835C53.3245 17.3055 53.236 16.7157 53.236 16.1141C53.236 15.5125 53.3245 14.9227 53.5015 14.3447C53.6785 13.7667 53.9439 13.2441 54.2979 12.777C54.6519 12.3123 55.0944 11.9407 55.6254 11.6623C56.1563 11.3863 56.7758 11.2483 57.4838 11.2483ZM57.767 12.6815C57.1416 12.6815 56.6165 12.849 56.1917 13.184C55.767 13.5214 55.4507 13.9495 55.2431 14.4686C55.0378 14.9876 54.9351 15.5361 54.9351 16.1141C54.9351 16.6803 55.0378 17.2253 55.2431 17.749C55.4507 18.2751 55.767 18.7057 56.1917 19.0407C56.6165 19.3781 57.1416 19.5468 57.767 19.5468C58.3923 19.5468 58.9139 19.3781 59.3316 19.0407C59.7516 18.7057 60.0643 18.2751 60.2696 17.749C60.4773 17.2253 60.5811 16.6803 60.5811 16.1141C60.5811 15.5361 60.4773 14.9876 60.2696 14.4686C60.0643 13.9495 59.7516 13.5214 59.3316 13.184C58.9139 12.849 58.3923 12.6815 57.767 12.6815ZM68.2095 20.98C67.4897 20.98 66.8962 20.8797 66.429 20.6792C65.9641 20.4786 65.5959 20.2274 65.3245 19.9254C65.0531 19.6258 64.8526 19.325 64.7228 19.023C64.593 18.7234 64.5104 18.4733 64.475 18.2728C64.4396 18.0723 64.4219 17.972 64.4219 17.972H66.121C66.121 17.972 66.1411 18.051 66.1812 18.2091C66.2237 18.3695 66.3121 18.5524 66.4467 18.7576C66.5835 18.9652 66.7959 19.1481 67.0838 19.3061C67.3741 19.4665 67.7611 19.5468 68.2449 19.5468C68.7995 19.5468 69.2302 19.4146 69.5369 19.1504C69.8437 18.8838 69.9971 18.5559 69.9971 18.1666C69.9971 17.8245 69.8756 17.5532 69.6325 17.3527C69.3918 17.1522 69.0473 16.9988 68.5989 16.8927L67.3245 16.5919C66.8526 16.4739 66.4101 16.3146 65.9971 16.1141C65.5841 15.9136 65.2502 15.6387 64.9953 15.2896C64.7428 14.9428 64.6166 14.5099 64.6166 13.9908C64.6166 13.1887 64.9175 12.5305 65.5192 12.0162C66.121 11.5042 66.9057 11.2483 67.8732 11.2483C68.5222 11.2483 69.0591 11.3391 69.4838 11.5207C69.9086 11.7048 70.2473 11.9324 70.4998 12.2037C70.7547 12.475 70.9434 12.7464 71.0662 13.0177C71.1912 13.289 71.2715 13.5155 71.3069 13.6971C71.3423 13.8811 71.36 13.9731 71.36 13.9731H69.7316C69.7316 13.9731 69.7139 13.9047 69.6785 13.7679C69.6431 13.6334 69.5629 13.4801 69.4378 13.3078C69.3151 13.138 69.1299 12.9846 68.8821 12.8478C68.6343 12.7133 68.3039 12.6461 67.8909 12.6461C67.3245 12.6461 66.9116 12.7758 66.652 13.0354C66.3924 13.2949 66.2626 13.578 66.2626 13.8847C66.2626 14.1796 66.3829 14.4178 66.6237 14.5995C66.8667 14.7835 67.1829 14.9227 67.5723 15.0171L68.8644 15.3179C69.6667 15.5066 70.3299 15.8157 70.8538 16.2451C71.38 16.6768 71.6432 17.2937 71.6432 18.0958C71.6432 18.6149 71.5075 19.095 71.2361 19.5361C70.9647 19.9797 70.5753 20.3312 70.0679 20.5907C69.5605 20.8502 68.9411 20.98 68.2095 20.98ZM77.5688 20.98C76.6013 20.98 75.8733 20.7323 75.3848 20.2368C74.8939 19.7414 74.6485 19.0454 74.6485 18.1489V12.8053H72.967V11.4252H74.6485V9.07189H76.3299V11.4252H78.6131V12.8053H76.3299V18.1489C76.3299 18.6208 76.4597 18.9652 76.7193 19.1823C76.9789 19.4017 77.3565 19.5114 77.852 19.5114C78.1116 19.5114 78.3594 19.4937 78.5954 19.4583C78.8314 19.4229 78.9494 19.4052 78.9494 19.4052V20.8384C78.9494 20.8384 78.8137 20.862 78.5423 20.9092C78.2709 20.9564 77.9464 20.98 77.5688 20.98ZM82.2591 9.6381C81.9406 9.6381 81.6786 9.53193 81.4733 9.31961C81.2656 9.10728 81.1618 8.85366 81.1618 8.55876C81.1618 8.25207 81.2656 7.99255 81.4733 7.78022C81.6786 7.5679 81.9406 7.46173 82.2591 7.46173C82.5659 7.46173 82.8255 7.5679 83.0379 7.78022C83.2503 7.99255 83.3565 8.25207 83.3565 8.55876C83.3565 8.85366 83.2503 9.10728 83.0379 9.31961C82.8255 9.53193 82.5659 9.6381 82.2591 9.6381ZM83.1087 20.803H81.4273V11.4252H83.1087V20.803ZM87.7105 20.803H86.0114V7.70945H88.2946L92.153 15.4948L95.9937 7.70945H98.2769V20.803H96.5778V10.2574L92.9672 17.4412H91.3211L87.7105 10.222V20.803ZM105.003 11.2483C105.593 11.2483 106.088 11.3426 106.489 11.5314C106.891 11.7201 107.215 11.9407 107.463 12.1931C107.711 12.4479 107.899 12.6874 108.029 12.9115H108.135V11.4252H109.817V20.803H108.135V19.3167H108.029C107.899 19.5409 107.711 19.7827 107.463 20.0422C107.215 20.3017 106.891 20.5223 106.489 20.704C106.088 20.888 105.593 20.98 105.003 20.98C104.295 20.98 103.675 20.8408 103.144 20.5624C102.613 20.2864 102.171 19.9148 101.817 19.4477C101.463 18.9829 101.197 18.4615 101.02 17.8835C100.843 17.3055 100.755 16.7157 100.755 16.1141C100.755 15.5125 100.843 14.9227 101.02 14.3447C101.197 13.7667 101.463 13.2441 101.817 12.777C102.171 12.3123 102.613 11.9407 103.144 11.6623C103.675 11.3863 104.295 11.2483 105.003 11.2483ZM105.286 12.6815C104.66 12.6815 104.135 12.849 103.711 13.184C103.286 13.5214 102.97 13.9495 102.762 14.4686C102.557 14.9876 102.454 15.5361 102.454 16.1141C102.454 16.6803 102.557 17.2253 102.762 17.749C102.97 18.2751 103.286 18.7057 103.711 19.0407C104.135 19.3781 104.66 19.5468 105.286 19.5468C105.911 19.5468 106.433 19.3781 106.85 19.0407C107.27 18.7057 107.583 18.2751 107.788 17.749C107.996 17.2253 108.1 16.6803 108.1 16.1141C108.1 15.5361 107.996 14.9876 107.788 14.4686C107.583 13.9495 107.27 13.5214 106.85 13.184C106.433 12.849 105.911 12.6815 105.286 12.6815ZM115.919 20.98C114.952 20.98 114.224 20.7323 113.735 20.2368C113.245 19.7414 112.999 19.0454 112.999 18.1489V12.8053H111.318V11.4252H112.999V9.07189H114.681V11.4252H116.964V12.8053H114.681V18.1489C114.681 18.6208 114.81 18.9652 115.07 19.1823C115.33 19.4017 115.707 19.5114 116.203 19.5114C116.462 19.5114 116.71 19.4937 116.946 19.4583C117.182 19.4229 117.3 19.4052 117.3 19.4052V20.8384C117.3 20.8384 117.164 20.862 116.893 20.9092C116.622 20.9564 116.297 20.98 115.919 20.98ZM123.424 20.98C122.657 20.98 121.994 20.8408 121.435 20.5624C120.873 20.2864 120.413 19.9124 120.054 19.4406C119.693 18.9688 119.424 18.4462 119.247 17.8729C119.07 17.302 118.981 16.7157 118.981 16.1141C118.981 15.5243 119.068 14.9404 119.24 14.3624C119.41 13.7844 119.675 13.2595 120.036 12.7876C120.395 12.3158 120.849 11.9407 121.399 11.6623C121.947 11.3863 122.598 11.2483 123.353 11.2483C124.156 11.2483 124.863 11.4311 125.477 11.7968C126.091 12.1624 126.574 12.7051 126.928 13.4246C127.282 14.1442 127.459 15.0466 127.459 16.1318V16.6272H120.681C120.716 17.1581 120.843 17.6441 121.063 18.0852C121.28 18.5288 121.589 18.8838 121.99 19.1504C122.392 19.4146 122.869 19.5468 123.424 19.5468C123.908 19.5468 124.301 19.4665 124.603 19.3061C124.902 19.1481 125.141 18.9629 125.318 18.7505C125.495 18.5382 125.616 18.3518 125.682 18.1914C125.746 18.0333 125.778 17.9543 125.778 17.9543H127.353C127.353 17.9543 127.324 18.0569 127.265 18.2622C127.206 18.4698 127.099 18.721 126.946 19.0159C126.793 19.3108 126.569 19.6081 126.274 19.9077C125.979 20.2097 125.601 20.4633 125.141 20.6686C124.681 20.8762 124.108 20.98 123.424 20.98ZM120.698 15.3179H125.813C125.79 14.7045 125.66 14.2055 125.424 13.821C125.188 13.4388 124.887 13.1533 124.521 12.9646C124.156 12.7758 123.766 12.6815 123.353 12.6815C122.61 12.6815 122.002 12.9198 121.53 13.3963C121.058 13.8752 120.781 14.5158 120.698 15.3179Z" fill="#252121"/>
</g>
</g>
</g>
</g>
</g>
<defs>
<clipPath id="clip0_7_811">
<rect width="134.928" height="31.7328" fill="white"/>
</clipPath>
<clipPath id="clip1_7_811">
<rect width="134.928" height="31.7328" fill="white"/>
</clipPath>
<clipPath id="clip2_7_811">
<rect width="120.001" height="16.8093" fill="white" transform="translate(7.46387 7.46173)"/>
</clipPath>
<clipPath id="clip3_7_811">
<rect width="120.001" height="16.8093" fill="white" transform="translate(7.46387 7.46173)"/>
</clipPath>
<clipPath id="clip4_7_811">
<rect width="120.001" height="16.8093" fill="white" transform="translate(7.46387 7.46173)"/>
</clipPath>
</defs>
</svg>
