<svg width="27" height="36" viewBox="0 0 27 36" fill="none" xmlns="http://www.w3.org/2000/svg">
<path d="M23.1425 34.8366L14.92 28.5308C14.1385 27.9365 13.0566 27.9365 12.275 28.5308L3.97587 34.8366C3.37068 35.3231 2.5456 35.4338 1.83357 35.124C1.12154 34.8143 0.640045 34.1352 0.583374 33.3608V6.41244C0.65771 4.83246 1.35896 3.34733 2.53178 2.28604C3.7046 1.22474 5.25218 0.674885 6.83171 0.75827H20.2484C21.8374 0.685657 23.3892 1.25325 24.5564 2.33398C25.7236 3.41472 26.4087 4.91834 26.4584 6.50827V33.3608C26.3838 34.1074 25.9145 34.7566 25.2291 35.0617C24.5436 35.3668 23.7472 35.2809 23.1425 34.8366Z" fill="#BD8904"/>
</svg>
