<svg width="54" height="54" viewBox="0 0 54 54" fill="none" xmlns="http://www.w3.org/2000/svg">
<path fill-rule="evenodd" clip-rule="evenodd" d="M12 0H39L54 15V42C54 48.6274 48.6274 54 42 54H12C5.37258 54 0 48.6274 0 42V12C0 5.37258 5.37258 0 12 0ZM47.3635 47.3635C48.7848 45.9422 49.5761 44.0099 49.56 42L49.65 16.92L37.17 4.44H12C9.99006 4.42385 8.05775 5.21517 6.63646 6.63646C5.21517 8.05775 4.42385 9.99006 4.44 12V42C4.42385 44.0099 5.21517 45.9422 6.63646 47.3635C8.05775 48.7848 9.99006 49.5761 12 49.56H42C44.0099 49.5761 45.9422 48.7848 47.3635 47.3635Z" fill="#BD8904"/>
<path d="M31.59 10.77H9.3C8.05736 10.77 7.05 11.7774 7.05 13.02C7.05 14.2626 8.05736 15.27 9.3 15.27H31.59C32.8326 15.27 33.84 14.2626 33.84 13.02C33.84 11.7774 32.8326 10.77 31.59 10.77Z" fill="#BD8904"/>
<path fill-rule="evenodd" clip-rule="evenodd" d="M9.76222 32.8507C10.759 30.4602 13.1001 28.9078 15.69 28.9199C19.2025 28.9199 22.05 31.7674 22.05 35.2799C22.0621 37.8699 20.5097 40.211 18.1192 41.2077C15.7288 42.2044 12.973 41.6597 11.1417 39.8283C9.31028 37.9969 8.76549 35.2412 9.76222 32.8507ZM13.9226 36.0242C14.2246 36.7294 14.923 37.1821 15.69 37.1699C16.7221 37.1535 17.5501 36.3121 17.55 35.2799C17.5499 34.5128 17.0861 33.8218 16.3762 33.5311C15.6662 33.2404 14.851 33.4077 14.3129 33.9545C13.7748 34.5012 13.6206 35.319 13.9226 36.0242Z" fill="#BD8904"/>
</svg>
