<svg width="54" height="54" viewBox="0 0 54 54" fill="none" xmlns="http://www.w3.org/2000/svg">
<path fill-rule="evenodd" clip-rule="evenodd" d="M53.9808 15.0658V15.4245C53.9329 16.8045 53.4445 18.1269 52.5949 19.1772L36.7486 38.1336L29.4531 46.8806C28.3647 48.1751 26.8046 48.918 25.1646 48.9225C24.7995 48.9632 24.4314 48.9632 24.0664 48.9225H23.9095C23.6103 48.8768 23.3194 48.7838 23.0466 48.6466H22.7589C22.5133 48.5398 22.2771 48.4105 22.0529 48.2603L21.7914 48.0671L21.2946 47.6808L17.686 51.4887C16.9937 52.2178 16.049 52.6166 15.0711 52.5924C14.3682 52.566 13.6873 52.3265 13.1099 51.9026C12.4556 52.604 11.6013 53.0596 10.6781 53.1994L4.11468 53.9996H3.72244C3.04379 54.0114 2.3874 53.7442 1.89202 53.2546L0.689162 51.9853C-0.411502 50.4594 -0.168689 48.2876 1.23829 47.0738L4.89915 43.2107C3.8876 41.6985 4.0531 39.6378 5.29138 38.3268L8.89995 34.5189C8.7778 34.3507 8.66432 34.1757 8.56001 33.9947C8.47333 33.8911 8.39463 33.7803 8.32467 33.6635L7.80169 32.5598C7.5925 32.3115 7.59249 32.0631 7.59249 31.7872V31.4009C7.56571 31.1073 7.56571 30.8116 7.59249 30.5179V29.1935C7.60859 29.149 7.60859 29.0999 7.59249 29.0555C7.85962 27.8303 8.492 26.7278 9.39678 25.9099L23.2819 12.9963L35.6242 1.54521C36.7049 0.552947 38.0879 0.00442485 39.5204 0C41.0724 0.00269492 42.5593 0.658118 43.652 1.82114L52.3857 10.8717C53.1868 11.7085 53.7408 12.7723 53.9808 13.9345C53.9686 13.9889 53.9686 14.0456 53.9808 14.1001C54.0064 14.4214 54.0064 14.7445 53.9808 15.0658ZM25.0862 44.9491C25.6105 44.9542 26.1094 44.7112 26.4459 44.2869L33.5584 35.6502L49.5093 16.5558C50.2001 15.7805 50.2001 14.5719 49.5093 13.7965L40.8802 4.69082C40.5127 4.30261 40.0142 4.08426 39.4943 4.08377C39.0323 4.08123 38.5856 4.258 38.2391 4.58045L25.9491 16.0868L11.7763 29.2762C11.6202 29.4487 11.4881 29.6439 11.3841 29.8557V29.9937C11.3474 30.157 11.3474 30.327 11.3841 30.4903C11.3445 30.7091 11.3445 30.9338 11.3841 31.1526C11.5157 31.3553 11.6963 31.5172 11.9071 31.6217C11.8889 31.6846 11.8889 31.7519 11.9071 31.8148L23.8049 44.5076C24.0037 44.6979 24.2342 44.8476 24.4847 44.9491C24.6406 44.9754 24.7995 44.9754 24.9554 44.9491H25.0862ZM4.19313 49.8055L6.44194 47.4601L8.22007 49.3088L4.19313 49.8055ZM8.29852 41.0309L15.0711 48.2879L18.4705 44.618L11.6717 37.4438L8.29852 41.0309Z" fill="#BD8904"/>
<path d="M38.4483 13.4378L26.6813 25.8547C25.9165 26.6627 25.9165 27.9716 26.6813 28.7796C27.047 29.1704 27.5466 29.3892 28.0672 29.3866C28.5895 29.3991 29.0926 29.1787 29.4531 28.7796L41.2201 16.3627C41.5939 15.9784 41.8047 15.451 41.8047 14.9003C41.8047 14.3495 41.5939 13.8222 41.2201 13.4378C40.4544 12.6309 39.214 12.6309 38.4483 13.4378Z" fill="#BD8904"/>
</svg>
