<svg width="28" height="36" viewBox="0 0 28 36" fill="none" xmlns="http://www.w3.org/2000/svg">
<path fill-rule="evenodd" clip-rule="evenodd" d="M6.75148 0.758315L21.2485 0.758315C22.9518 0.674888 24.6209 1.22189 25.8876 2.2786C27.1543 3.3353 27.9143 4.81484 27.9999 6.39069L27.9999 33.3264C28.0023 33.8659 27.7587 34.3812 27.329 34.7459C26.8993 35.1106 26.3233 35.2908 25.7426 35.2422C25.2336 35.2422 24.7387 35.0874 24.3343 34.8016L15.3668 28.4987C14.52 27.9112 13.3557 27.9112 12.5089 28.4987L3.62427 34.8016C3.23112 35.0796 2.75217 35.234 2.25741 35.2422C1.67663 35.2908 1.10064 35.1106 0.670941 34.7459C0.241239 34.3812 -0.00234987 33.8659 1.70921e-05 33.3264L1.70908e-05 6.39069C0.0856662 4.81484 0.84569 3.3353 2.11235 2.2786C3.37901 1.22189 5.04819 0.674888 6.75148 0.758315ZM17.2929 26.2189L24.852 31.5831L24.8106 6.39069C24.6146 4.72044 23.0174 3.49771 21.2071 3.63197L6.71006 3.63197C4.89968 3.49771 3.30251 4.72044 3.10652 6.39069L3.10652 31.5831L10.6657 26.2189C12.623 24.8393 15.3355 24.8393 17.2929 26.2189Z" fill="#BD8904"/>
</svg>
